# Blender 4.5.4 LTS
# www.blender.org
mtllib Nailsss.mtl
o Nails
v 0.522825 -0.132817 -0.207319
v 0.522921 -0.131205 -0.208911
v 0.524414 -0.131236 -0.207184
v 0.522894 -0.132337 -0.208444
v 0.523798 -0.132140 -0.208160
v 0.524015 -0.131219 -0.208349
v 0.523949 -0.132359 -0.207224
v 0.522921 0.119612 -0.208911
v 0.522825 0.121206 -0.207319
v 0.524414 0.119556 -0.207184
v 0.522894 0.120739 -0.208444
v 0.523798 0.120500 -0.208160
v 0.523949 0.120699 -0.207223
v 0.524015 0.119572 -0.208349
v 0.493471 -0.138548 0.280111
v 0.495062 -0.136981 0.280205
v 0.493376 -0.136973 0.281702
v 0.494596 -0.138100 0.280178
v 0.494335 -0.137901 0.281084
v 0.494528 -0.136986 0.281302
v 0.493404 -0.138095 0.281236
v 0.493473 0.121206 0.280111
v 0.493376 0.119611 0.281702
v 0.495062 0.119556 0.280205
v 0.493404 0.120738 0.281236
v 0.494335 0.120499 0.281084
v 0.494528 0.119572 0.281303
v 0.494596 0.120699 0.280178
v -0.147480 -0.119872 -0.256033
v -0.147419 -0.118197 -0.257652
v -0.145782 -0.120156 -0.258750
v -0.147379 -0.119370 -0.257187
v -0.146494 -0.119433 -0.257717
v -0.146284 -0.119372 -0.258082
v -0.146278 -0.119726 -0.257850
v -0.147564 0.120646 -0.256268
v -0.145788 0.123048 -0.258690
v -0.147438 0.119052 -0.257865
v -0.146368 0.121360 -0.257255
v -0.146545 0.120927 -0.257670
v -0.146294 0.121523 -0.258125
v -0.147518 0.120178 -0.257396
v -0.183788 -0.118261 0.233707
v -0.183596 -0.119965 0.232039
v -0.182299 -0.120156 0.234193
v -0.183506 -0.119379 0.233167
v -0.182827 -0.119476 0.233410
v -0.182659 -0.119756 0.233522
v -0.182697 -0.119516 0.233708
v -0.183825 0.118479 0.233227
v -0.182293 0.123048 0.234134
v -0.183626 0.120185 0.231644
v -0.182716 0.121344 0.233545
v -0.182898 0.120703 0.233097
v -0.182640 0.121227 0.232765
v -0.183855 0.119645 0.232756
v -0.181133 0.145174 0.240017
v -0.182781 0.142870 0.240726
v -0.181250 0.143580 0.241606
v -0.182270 0.144534 0.240277
v -0.182127 0.144350 0.241035
v -0.182367 0.143129 0.241301
v -0.181198 0.144707 0.241142
v -0.181131 -0.127521 0.240017
v -0.181250 -0.125927 0.241606
v -0.182777 -0.126647 0.240667
v -0.181215 -0.127054 0.241141
v -0.182131 -0.127008 0.241054
v -0.182365 -0.126377 0.241283
v -0.182301 -0.127246 0.240410
v -0.145304 -0.126647 -0.265224
v -0.143654 -0.125913 -0.265932
v -0.143770 -0.127507 -0.264343
v -0.144804 -0.126371 -0.265774
v -0.144606 -0.127002 -0.265514
v -0.143686 -0.127040 -0.265467
v -0.144869 -0.127242 -0.264901
v -0.143772 0.145174 -0.264343
v -0.143654 0.143579 -0.265932
v -0.145300 0.142870 -0.265283
v -0.143673 0.144706 -0.265466
v -0.144606 0.144350 -0.265494
v -0.144804 0.143129 -0.265792
v -0.144857 0.144533 -0.264766
v -0.201069 0.112732 0.231911
v -0.201180 0.114374 0.230298
v -0.202570 0.112282 0.230198
v -0.201160 0.113878 0.231431
v -0.202023 0.113394 0.231159
v -0.202223 0.113560 0.230220
v -0.202143 0.112399 0.231361
v -0.183798 -0.118261 0.233664
v -0.185198 -0.119028 0.232424
v -0.183598 -0.119964 0.232039
v -0.184826 -0.118779 0.233456
v -0.184559 -0.119644 0.233193
v -0.184685 -0.119983 0.232307
v -0.183695 -0.119440 0.233184
v -0.151802 -0.121481 -0.255337
v -0.153521 -0.120464 -0.255131
v -0.151907 -0.119866 -0.256965
v -0.152929 -0.121425 -0.255184
v -0.152700 -0.121132 -0.256144
v -0.153006 -0.120282 -0.256335
v -0.151791 -0.121002 -0.256481
v -0.183874 0.119679 -0.255359
v -0.183599 0.118109 -0.256954
v -0.185259 0.118057 -0.255321
v -0.183769 0.119225 -0.256487
v -0.184673 0.118996 -0.256257
v -0.184748 0.118078 -0.256459
v -0.184942 0.119188 -0.255332
vn 0.0852 -0.0000 -0.9964
vn 0.3521 -0.9356 0.0259
vn -0.0791 0.0018 0.9969
vn 0.0355 0.9994 0.0024
vn 0.9982 -0.0000 0.0601
vn -0.0593 -0.0000 0.9982
vn -0.9933 -0.1041 -0.0505
vn -0.0391 -0.0030 -0.9992
vn -0.1248 0.9922 -0.0010
vn -0.9973 -0.0000 -0.0738
vn -0.9973 -0.0000 -0.0739
vn 0.3447 -0.8846 -0.3140
vn 0.3447 -0.8847 -0.3140
vn 0.3939 -0.3219 -0.8610
vn 0.9057 -0.3243 -0.2730
vn 0.4068 0.3213 -0.8552
vn 0.3786 0.8761 -0.2986
vn 0.3786 0.8760 -0.2986
vn 0.9090 0.3213 -0.2655
vn 0.2939 -0.8949 0.3357
vn 0.8674 -0.3262 0.3759
vn 0.2681 -0.3268 0.9063
vn 0.2681 -0.3269 0.9063
vn 0.3330 0.8784 0.3427
vn 0.2821 0.3237 0.9031
vn 0.8699 0.3207 0.3748
vn 0.8699 0.3207 0.3747
vn -0.5212 -0.7003 -0.4878
vn -0.5212 -0.7002 -0.4878
vn -0.5809 -0.3985 -0.7097
vn -0.8706 -0.2796 -0.4048
vn -0.6537 0.6765 -0.3393
vn -0.9441 0.3290 -0.0195
vn -0.7556 0.4131 -0.5083
vn -0.5223 -0.5683 0.6358
vn -0.5205 -0.6689 0.5307
vn -0.8897 -0.3569 0.2846
vn -0.8897 -0.3570 0.2846
vn -0.8353 0.3719 0.4049
vn -0.9427 0.3040 -0.1378
vn -0.7809 0.5987 0.1781
vn -0.3944 0.8629 0.3159
vn -0.8810 0.3178 0.3504
vn -0.3056 0.3171 0.8978
vn -0.0866 -0.9242 0.3719
vn -0.1093 -0.3797 0.9186
vn -0.6330 -0.5708 0.5229
vn -0.6331 -0.5708 0.5229
vn -0.5455 -0.5727 -0.6119
vn 0.0274 -0.3801 -0.9246
vn -0.0245 -0.9242 -0.3811
vn -0.3440 0.8633 -0.3694
vn -0.1727 0.3167 -0.9327
vn -0.8202 0.3168 -0.4763
vn -0.4715 0.2741 0.8382
vn -0.5746 0.7599 0.3040
vn -0.9342 0.2160 0.2840
vn 0.0293 -0.3372 0.9410
vn 0.0292 -0.3372 0.9410
vn -0.8332 -0.4298 0.3480
vn 0.1585 -0.9095 0.3842
vn -0.0501 -0.9356 -0.3496
vn -0.8191 -0.4328 -0.3766
vn -0.3211 -0.3659 -0.8735
vn -0.3617 0.8681 -0.3399
vn -0.3505 0.2782 -0.8943
vn -0.9092 0.2077 -0.3609
vn 0.3727 -0.9279 0.0115
vn 0.9214 -0.3853 0.0510
vn 0.4567 -0.0000 -0.8896
vn 0.9461 -0.0000 -0.3238
vn 0.4086 0.9124 0.0246
vn 0.9238 0.3788 0.0557
vn 0.3276 -0.0000 0.9448
vn 0.8992 -0.0000 0.4376
vn -0.0375 -0.9258 0.3762
vn -0.0610 -0.3832 0.9216
vn 0.0100 0.9232 0.3842
vn -0.0413 0.3823 0.9231
vn -0.8217 -0.0001 0.5699
vn -0.2707 -0.0000 0.9627
vn -0.2294 -0.9732 -0.0170
vn -0.7931 -0.6062 -0.0588
vn -0.4971 0.8669 -0.0368
vn -0.9585 0.2762 -0.0710
vn -0.1292 -0.0000 -0.9916
vn -0.7286 -0.0001 -0.6850
vn 0.0257 -0.9219 -0.3865
vn 0.0758 -0.3820 -0.9211
vn 0.0656 0.9231 -0.3790
vn 0.0924 0.3824 -0.9193
vn -0.1445 0.0013 0.9895
vn -0.7942 0.0003 0.6077
vn -0.7012 -0.7110 -0.0519
vn 0.1652 -0.9862 0.0121
vn -0.9648 0.2530 -0.0714
vn -0.6246 0.7796 -0.0457
vn -0.7745 -0.0000 -0.6326
vn -0.2895 -0.0005 -0.9572
vn -0.9339 -0.0668 0.3512
vn -0.3331 -0.0171 0.9428
vn -0.0167 -0.9999 0.0020
vn -0.8668 -0.4956 -0.0550
vn -0.8668 -0.4955 -0.0550
vn -0.5256 0.8507 -0.0091
vn -0.9636 0.2656 -0.0312
vn -0.4377 -0.0585 -0.8972
vn -0.9053 -0.1208 -0.4072
vn -0.0332 0.3819 -0.9236
vn -0.0340 0.9243 -0.3801
vn -0.1911 0.3644 0.9114
vn -0.3181 0.8718 0.3726
vn 0.3123 -0.8521 0.4199
vn 0.3123 -0.8521 0.4200
vn 0.0106 -0.4059 0.9139
vn 0.2713 -0.8897 -0.3671
vn -0.0037 -0.3804 -0.9248
vn -0.0117 -0.9999 -0.0066
vt 0.996211 0.994755
vt 0.783042 0.996320
vt 0.798899 0.469658
vt 0.997294 0.468202
vt 0.218300 0.409173
vt 0.218310 0.796344
vt 0.218309 0.796344
vt 0.214799 0.409976
vt 0.595676 0.203583
vt 0.595711 0.016317
vt 0.609392 0.020861
vt 0.595687 0.203584
vt 0.002721 0.002682
vt 0.534460 0.011949
vt 0.529146 0.398082
vt 0.002721 0.402646
vt 0.762608 0.002700
vt 0.961009 0.002700
vt 0.961009 0.388973
vt 0.758063 0.388973
vt 0.002691 0.408234
vt 0.205632 0.411593
vt 0.215857 0.946392
vt 0.002695 0.942863
vt 0.360042 0.993991
vt 0.360389 0.810511
vt 0.744614 0.804176
vt 0.746553 0.993980
vt 0.561739 0.204009
vt 0.561738 0.016338
vt 0.565297 0.015011
vt 0.590354 0.203261
vt 0.966406 0.390227
vt 0.966429 0.003321
vt 0.995002 0.006192
vt 0.980633 0.390100
vt 0.747958 0.398378
vt 0.747963 0.007392
vt 0.753090 0.002253
vt 0.753085 0.403508
vt 0.555867 0.398503
vt 0.540211 0.403747
vt 0.555872 0.007612
vt 0.540216 0.002397
vt 0.778925 0.411966
vt 0.778960 0.411074
vt 0.779704 0.411246
vt 0.779855 0.411976
vt 0.997306 0.467342
vt 0.998038 0.467513
vt 0.998195 0.468223
vt 0.761719 0.002691
vt 0.761892 0.001959
vt 0.762621 0.001799
vt 0.798012 0.469693
vt 0.798200 0.468980
vt 0.798931 0.468799
vt 0.530006 0.398084
vt 0.529821 0.398818
vt 0.529107 0.398983
vt 0.961021 0.001799
vt 0.961755 0.001959
vt 0.961913 0.002691
vt 0.783656 0.798241
vt 0.784584 0.798228
vt 0.784451 0.798958
vt 0.783712 0.799132
vt 0.758058 0.389864
vt 0.757335 0.389701
vt 0.757177 0.388973
vt 0.001800 0.408225
vt 0.001963 0.407503
vt 0.002691 0.407348
vt 0.534445 0.011067
vt 0.535154 0.011248
vt 0.535319 0.011974
vt 0.205611 0.410708
vt 0.206340 0.410886
vt 0.206519 0.411614
vt 0.961913 0.388973
vt 0.961755 0.389701
vt 0.961021 0.389864
vt 0.218359 0.408257
vt 0.219015 0.407787
vt 0.219149 0.407670
vt 0.560835 0.015413
vt 0.561006 0.015360
vt 0.561713 0.015405
vt 0.747605 0.008126
vt 0.747364 0.008241
vt 0.747324 0.007944
vt 0.965504 0.002486
vt 0.965693 0.002160
vt 0.966486 0.002419
vt 0.557056 0.008081
vt 0.557517 0.008451
vt 0.557184 0.008771
vt 0.558957 0.008337
vt 0.558066 0.008711
vt 0.595487 0.204473
vt 0.594937 0.204548
vt 0.594815 0.204577
vt 0.219149 0.797458
vt 0.219038 0.797380
vt 0.218502 0.797227
vt 0.747433 0.398014
vt 0.747395 0.397784
vt 0.747624 0.397865
vt 0.559405 0.397854
vt 0.557192 0.398056
vt 0.557689 0.397711
vt 0.558481 0.397485
vt 0.557285 0.397437
vt 0.558061 0.396596
vt 0.001804 0.002421
vt 0.001950 0.001836
vt 0.002707 0.001800
vt 0.540026 0.404181
vt 0.539072 0.403961
vt 0.538918 0.403370
vt 0.216744 0.946395
vt 0.216449 0.947128
vt 0.215484 0.947286
vt 0.254216 0.805934
vt 0.254261 0.806825
vt 0.253544 0.806810
vt 0.253351 0.806312
vt 0.002322 0.943756
vt 0.001823 0.943577
vt 0.001799 0.942849
vt 0.753579 0.403283
vt 0.753401 0.403784
vt 0.752892 0.403976
vt 0.996809 0.996065
vt 0.996581 0.995665
vt 0.997082 0.995508
vt 0.997280 0.995722
vt 0.997107 0.994781
vt 0.254217 0.405842
vt 0.253351 0.405465
vt 0.253544 0.404966
vt 0.254264 0.404950
vt 0.002706 0.403546
vt 0.001950 0.403520
vt 0.001804 0.402927
vt 0.783406 0.997230
vt 0.782443 0.997083
vt 0.782156 0.996348
vt 0.538923 0.002786
vt 0.539078 0.002200
vt 0.540031 0.001973
vt 0.609494 0.019959
vt 0.610191 0.020344
vt 0.610273 0.021129
vt 0.981505 0.390085
vt 0.981303 0.390810
vt 0.980580 0.390983
vt 0.359490 0.810444
vt 0.359652 0.809662
vt 0.360384 0.809517
vt 0.596510 0.203995
vt 0.596315 0.204682
vt 0.595634 0.204522
vt 0.360160 0.994768
vt 0.359466 0.994510
vt 0.359243 0.993817
vt 0.218350 0.797252
vt 0.217654 0.797309
vt 0.217471 0.796619
vt 0.213930 0.410163
vt 0.214082 0.409392
vt 0.214789 0.409073
vt 0.747527 0.993853
vt 0.747393 0.994539
vt 0.746624 0.994765
vt 0.565210 0.014107
vt 0.565935 0.014000
vt 0.566173 0.014675
vt 0.995011 0.005288
vt 0.995722 0.005518
vt 0.995869 0.006268
vt 0.591269 0.203232
vt 0.591211 0.203955
vt 0.590494 0.204139
vt 0.744634 0.803297
vt 0.745378 0.803456
vt 0.745536 0.804176
vt 0.753581 0.002487
vt 0.752893 0.001796
vt 0.594816 0.014048
vt 0.965505 0.391073
vt 0.560829 0.205966
vt 0.561808 0.204894
vt 0.595762 0.015399
vt 0.966552 0.391107
s 1
usemtl Nails
f 72/1/1 79/2/1 8/3/1 2/4/1
f 29/5/2 44/6/2 94/7/2 99/8/2
f 43/9/3 50/10/3 85/11/3 92/12/3
f 57/13/4 22/14/4 9/15/4 78/16/4
f 3/17/5 10/18/5 24/19/5 16/20/5
f 17/21/6 23/22/6 59/23/6 65/24/6
f 93/25/7 87/26/7 108/27/7 100/28/7
f 38/29/8 30/30/8 101/31/8 107/32/8
f 52/33/9 36/34/9 106/35/9 86/36/9
f 45/37/10 31/38/10 71/39/10 66/40/10
f 51/41/10 45/37/10 66/40/10 58/42/11
f 37/43/10 51/41/10 58/42/11 80/44/11
f 31/38/10 37/43/10 80/44/11 71/39/10
f 1/45/12 4/46/13 5/47/12 7/48/13
f 2/4/14 6/49/14 5/50/14 4/51/14
f 3/17/15 7/52/15 5/53/15 6/54/15
f 8/3/16 11/55/16 12/56/16 14/57/16
f 9/15/17 13/58/18 12/59/17 11/60/18
f 10/18/19 14/61/19 12/62/19 13/63/19
f 15/64/20 18/65/20 19/66/20 21/67/20
f 16/20/21 20/68/21 19/69/21 18/70/21
f 17/21/22 21/71/22 19/72/23 20/73/22
f 22/14/24 25/74/24 26/75/24 28/76/24
f 23/22/25 27/77/25 26/78/25 25/79/25
f 24/19/26 28/80/27 26/81/26 27/82/27
f 29/5/28 32/83/29 33/84/29 35/85/29
f 30/30/30 34/86/30 33/87/30 32/88/30
f 31/38/31 35/89/31 33/90/31 34/91/31
f 36/34/32 39/92/32 40/93/32 42/94/32
f 37/43/33 41/95/33 40/96/33 39/97/33
f 38/98/34 42/99/34 40/96/34 41/95/34
f 43/9/35 46/100/35 47/101/35 49/102/35
f 44/6/36 48/103/36 47/104/36 46/105/36
f 45/37/37 49/106/37 47/107/37 48/108/38
f 50/109/39 53/110/39 54/111/39 56/112/39
f 51/41/40 55/113/40 54/111/40 53/110/40
f 52/114/41 56/112/41 54/111/41 55/113/41
f 57/13/42 60/115/42 61/116/42 63/117/42
f 58/42/43 62/118/43 61/119/43 60/120/43
f 59/23/44 63/121/44 61/122/44 62/123/44
f 64/124/45 67/125/45 68/126/45 70/127/45
f 65/24/46 69/128/46 68/129/46 67/130/46
f 66/40/47 70/131/47 68/132/48 69/133/48
f 71/134/49 74/135/49 75/136/49 77/137/49
f 72/1/50 76/138/50 75/136/50 74/135/50
f 73/139/51 77/140/51 75/141/51 76/142/51
f 78/16/52 81/143/52 82/144/52 84/145/52
f 79/2/53 83/146/53 82/147/53 81/148/53
f 80/44/54 84/149/54 82/150/54 83/151/54
f 85/11/55 88/152/55 89/153/55 91/154/55
f 86/36/56 90/155/56 89/156/56 88/157/56
f 87/26/57 91/158/57 89/159/57 90/160/57
f 92/12/58 95/161/59 96/162/58 98/163/59
f 93/25/60 97/164/60 96/165/60 95/166/60
f 94/7/61 98/167/61 96/168/61 97/169/61
f 99/8/62 102/170/62 103/171/62 105/172/62
f 100/28/63 104/173/63 103/174/63 102/175/63
f 101/31/64 105/176/64 103/177/64 104/178/64
f 106/35/65 109/179/65 110/180/65 112/181/65
f 107/32/66 111/182/66 110/183/66 109/184/66
f 108/27/67 112/185/67 110/186/67 111/187/67
f 15/64/68 1/45/68 7/48/68 18/65/68
f 18/70/69 7/52/69 3/17/69 16/20/69
f 2/4/70 8/3/70 14/57/70 6/49/70
f 6/54/71 14/61/71 10/18/71 3/17/71
f 9/15/72 22/14/72 28/76/72 13/58/72
f 13/63/73 28/80/73 24/19/73 10/18/73
f 23/22/74 17/21/74 20/73/74 27/77/74
f 27/82/75 20/68/75 16/20/75 24/19/75
f 64/124/76 15/64/76 21/67/76 67/125/76
f 67/130/77 21/71/77 17/21/77 65/24/77
f 22/14/78 57/13/78 63/117/78 25/74/78
f 25/79/79 63/121/79 59/23/79 23/22/79
f 58/42/80 66/40/80 69/133/80 62/118/80
f 62/123/81 69/128/81 65/24/81 59/23/81
f 73/139/82 64/124/82 70/127/82 77/140/82
f 77/188/83 70/131/83 66/40/83 71/39/83
f 57/13/84 78/16/84 84/145/84 60/115/84
f 60/120/85 84/149/85 80/44/85 58/42/85
f 79/2/86 72/1/86 74/135/86 83/146/86
f 83/151/87 74/189/87 71/39/87 80/44/87
f 1/45/88 73/139/88 76/142/88 4/46/88
f 4/51/89 76/138/89 72/1/89 2/4/89
f 78/16/90 9/15/90 11/60/90 81/143/90
f 81/148/91 11/55/91 8/3/91 79/2/91
f 50/10/92 43/9/92 49/102/92 53/190/92
f 53/110/93 49/106/93 45/37/93 51/41/93
f 31/38/94 45/37/94 48/108/94 35/89/94
f 35/85/95 48/103/95 44/6/95 29/5/95
f 51/41/96 37/43/96 39/97/96 55/113/96
f 55/191/97 39/92/97 36/34/97 52/33/97
f 37/43/98 31/38/98 34/91/98 41/95/98
f 41/192/99 34/86/99 30/30/99 38/29/99
f 87/26/100 93/25/100 95/166/100 91/158/100
f 91/154/101 95/161/101 92/12/101 85/11/101
f 99/8/102 94/7/102 97/169/102 102/170/102
f 102/175/103 97/164/104 93/25/103 100/28/104
f 86/36/105 106/35/105 112/181/105 90/155/105
f 90/160/106 112/185/106 108/27/106 87/26/106
f 107/32/107 101/31/107 104/178/107 111/182/107
f 111/187/108 104/173/108 100/28/108 108/27/108
f 38/29/109 107/32/109 109/184/109 42/193/109
f 42/94/110 109/179/110 106/35/110 36/34/110
f 85/11/111 50/10/111 56/194/111 88/152/111
f 88/157/112 56/195/112 52/33/112 86/36/112
f 94/7/113 44/6/114 46/105/114 98/167/114
f 98/163/115 46/100/115 43/9/115 92/12/115
f 29/5/116 99/8/116 105/172/116 32/83/116
f 32/88/117 105/176/117 101/31/117 30/30/117
f 15/64/118 64/124/118 73/139/118 1/45/118
